HIERARCHY
ROOT Hips
{
  OFFSET 45.7338 96.8124 -11.3916
  CHANNELS 6 Xposition Yposition Zposition Zrotation Xrotation Yrotation
  JOINT spine
  {
    OFFSET 0 7.96568 0.458067
    CHANNELS 3 Zrotation Xrotation Yrotation
    JOINT spine1
    {
      OFFSET 0 10.2431 0
      CHANNELS 3 Zrotation Xrotation Yrotation
      JOINT spine2
      {
        OFFSET 0 9.81475 0
        CHANNELS 3 Zrotation Xrotation Yrotation
        JOINT Neck
        {
          OFFSET 0 25.1986 1.20138
          CHANNELS 3 Zrotation Xrotation Yrotation
          JOINT Head
          {
            OFFSET 0 7.61315 0
            CHANNELS 3 Zrotation Xrotation Yrotation
            End Site
            {
              OFFSET 0 18.4281 -6.07733
            }
          }
        }
        JOINT RightShoulder
        {
          OFFSET -4.1327 10.5992 -0.575451
          CHANNELS 3 Zrotation Xrotation Yrotation
          JOINT RightArm
          {
            OFFSET 0 13.9018 0
            CHANNELS 3 Zrotation Xrotation Yrotation
            JOINT RightArmRoll
            {
              OFFSET 0 7.01789 0
              CHANNELS 3 Zrotation Xrotation Yrotation
              JOINT RightForeArm
              {
                OFFSET 0 20.4406 0
                CHANNELS 3 Zrotation Xrotation Yrotation
                JOINT RightForeArmRoll
                {
                  OFFSET 0 7.87515 0
                  CHANNELS 3 Zrotation Xrotation Yrotation
                  JOINT RightHand
                  {
                    OFFSET 0 15.8037 0
                    CHANNELS 3 Zrotation Xrotation Yrotation
                    End Site
                    {
                      OFFSET 0 0 0
                    }
                  }
                }
              }
            }
          }
        }
        JOINT LeftShoulder
        {
          OFFSET 4.1327 10.5992 -0.575451
          CHANNELS 3 Zrotation Xrotation Yrotation
          JOINT LeftArm
          {
            OFFSET 0 13.9018 0
            CHANNELS 3 Zrotation Xrotation Yrotation
            JOINT LeftArmRoll
            {
              OFFSET 0 7.01789 0
              CHANNELS 3 Zrotation Xrotation Yrotation
              JOINT LeftForeArm
              {
                OFFSET 0 20.4406 0
                CHANNELS 3 Zrotation Xrotation Yrotation
                JOINT LeftForeArmRoll
                {
                  OFFSET 0 7.87516 0
                  CHANNELS 3 Zrotation Xrotation Yrotation
                  JOINT LeftHand
                  {
                    OFFSET 0 15.8037 0
                    CHANNELS 3 Zrotation Xrotation Yrotation
                    End Site
                    {
                      OFFSET 0 0 0
                    }
                  }
                }
              }
            }
          }
        }
      }
    }
  }
  JOINT RightUpLeg
  {
    OFFSET -7.06048 -1.2947 -1.0861
    CHANNELS 3 Zrotation Xrotation Yrotation
    JOINT RightUpLegRoll
    {
      OFFSET 0 18.5308 0
      CHANNELS 3 Zrotation Xrotation Yrotation
      JOINT RightLeg
      {
        OFFSET 0 -22.9476 0
        CHANNELS 3 Zrotation Xrotation Yrotation
        JOINT RightLegRoll
        {
          OFFSET 0 23.0226 0
          CHANNELS 3 Zrotation Xrotation Yrotation
          JOINT RightFoot
          {
            OFFSET 0 19.1625 0
            CHANNELS 3 Zrotation Xrotation Yrotation
            JOINT RightToeBase
            {
              OFFSET 0 16.0188 0
              CHANNELS 3 Zrotation Xrotation Yrotation
              End Site
              {
                OFFSET 0.00678979 7.75781 -0.894207
              }
            }
          }
        }
      }
    }
  }
  JOINT LeftUpLeg
  {
    OFFSET 7.06048 -1.2947 -1.0861
    CHANNELS 3 Zrotation Xrotation Yrotation
    JOINT LeftUpLegRoll
    {
      OFFSET 0 18.5309 0
      CHANNELS 3 Zrotation Xrotation Yrotation
      JOINT LeftLeg
      {
        OFFSET 0 22.9475 0
        CHANNELS 3 Zrotation Xrotation Yrotation
        JOINT LeftLegRoll
        {
          OFFSET 0 23.2355 0
          CHANNELS 3 Zrotation Xrotation Yrotation
          JOINT LeftFoot
          {
            OFFSET 0 18.9496 0
            CHANNELS 3 Zrotation Xrotation Yrotation
            JOINT LeftToeBase
            {
              OFFSET 0 16.0188 0
              CHANNELS 3 Zrotation Xrotation Yrotation
              End Site
              {
                OFFSET -0.0304289 7.75781 -0.894207
              }
            }
          }
        }
      }
    }
  }
}
MOTION
Frames: 12
Frame Time: 0.00208333
53.0537 96.7107 4.00687 -0.426407 -6.29296 1.86467 0.196007 -0.502033 -0.281102 0.382806 2.97273 -0.573708 0.390174 4.61775 -0.580471 -5.1804 23.386 -2.45577 9.53893 17.1297 -4.85654 78.1048 -4.28961 -3.9489 93.3273 21.8286 0.306801 2.50469e-014 0 7.15625e-015 16.0497 16.8786 -3.12674 -2.6702e-005 6.88335e-006 -3 8.02899 -4.95145 0.697709 -61.3461 -1.10881 0.973874 -111.802 18.4509 5.00018 -1.70955e-014 0 -6.36111e-015 -12.0674 13.2606 2.15494 1.146e-005 -1.81543e-006 3 -8.02889 -4.95139 -0.697675 177.998 -3.96478 2.62841 180 7.01493e-015 178.708 179.429 9.38244 179.416 -2.19464e-006 -7.3452e-006 0.101226 -18.3772 67.4265 19.0762 8.13313 25.2319 -3.48754 -174.243 -3.6716 -2.69704 4.54188e-006 -4.6773e-006 -1.22498 -2.74406 -6.58098 0.0103773 1.97217e-006 -1.62636e-006 -0.0794868 18.5343 67.7136 -19.2863 -8.12198 25.2335 3.48155 
53.0571 96.7061 3.99761 -0.421319 -6.27294 1.85063 0.195829 -0.50002 -0.281111 0.383254 2.97857 -0.575364 0.390643 4.62358 -0.58215 -5.15862 23.2552 -2.38988 9.41551 17.0175 -4.76062 78.098 -4.28959 -3.94847 93.3598 21.855 0.349519 1.25234e-014 6.36111e-015 4.77083e-015 16.007 16.807 -3.11054 -2.6702e-005 6.88335e-006 -3 8.02899 -4.95145 0.697709 -61.3362 -1.09674 0.965723 -111.802 18.4542 5.02019 1.15295e-014 0 3.57812e-015 -12.0786 13.3098 2.16261 1.146e-005 -1.81543e-006 3 -8.02889 -4.95139 -0.697675 178.007 -3.89745 2.60431 180 7.01493e-015 178.708 179.455 9.44771 179.411 -2.19464e-006 -7.3452e-006 0.10107 -18.371 67.4186 19.0695 8.13295 25.2295 -3.49085 -174.253 -3.62097 -2.68652 4.54188e-006 -4.6773e-006 -1.22456 -2.73872 -6.63248 0.0107345 1.97217e-006 -1.62636e-006 -0.0805273 18.5422 67.7235 -19.2949 -8.12198 25.2335 3.48155 
53.053 96.7025 3.98276 -0.416232 -6.25312 1.8367 0.195571 -0.49802 -0.28112 0.383606 2.98443 -0.577043 0.391015 4.62945 -0.58385 -5.13563 23.1242 -2.32429 9.293 16.9053 -4.66457 78.0921 -4.28965 -3.94812 93.3916 21.8822 0.392851 3.77691e-015 0 7.95139e-016 15.9642 16.7346 -3.09417 -2.6702e-005 6.88335e-006 -3 8.02899 -4.95145 0.697709 -61.3255 -1.08402 0.957094 -111.802 18.4571 5.04082 -2.18663e-015 0 -3.97569e-016 -12.0902 13.3601 2.17047 1.146e-005 -1.81543e-006 3 -8.02889 -4.95139 -0.697675 178.016 -3.82987 2.58019 180 7.01493e-015 178.708 179.481 9.51381 179.405 -2.19464e-006 -7.3452e-006 0.100923 -18.365 67.4111 19.063 8.13269 25.2258 -3.49577 -174.264 -3.5713 -2.67624 4.54188e-006 -4.6773e-006 -1.22418 -2.73364 -6.68274 0.0110492 1.97217e-006 -1.62636e-006 -0.081537 18.5498 67.7328 -19.303 -8.12198 25.2335 3.48155 
53.0538 96.7029 3.97762 -0.411145 -6.23345 1.82286 0.195257 -0.49603 -0.281129 0.38389 2.99033 -0.578738 0.39132 4.63535 -0.585566 -5.1117 22.993 -2.25896 9.17125 16.793 -4.56846 78.0867 -4.28976 -3.94783 93.4229 21.91 0.436618 5.1684e-015 3.18055e-015 7.95139e-016 15.9213 16.6615 -3.07769 -2.6702e-005 6.88335e-006 -3 8.02899 -4.95145 0.697709 -61.3142 -1.07082 0.948132 -111.802 18.4597 5.06187 2.18663e-015 6.36111e-015 -7.95139e-016 -12.1022 13.4111 2.17845 1.146e-005 -1.81543e-006 3 -8.02889 -4.95139 -0.697675 178.025 -3.76212 2.55604 180 7.01493e-015 178.708 179.507 9.58049 179.399 -2.19464e-006 -7.3452e-006 0.100783 -18.3592 67.4037 19.0567 8.13237 25.2213 -3.50182 -174.274 -3.52232 -2.66613 4.54188e-006 -4.6773e-006 -1.22381 -2.72875 -6.73212 0.0113342 1.97217e-006 -1.62636e-006 -0.0825252 18.5569 67.7416 -19.3108 -8.12198 25.2335 3.48155 
53.0526 96.6973 3.96045 -0.406053 -6.21385 1.80906 0.194912 -0.494046 -0.281139 0.384136 2.99624 -0.580442 0.391587 4.64126 -0.58729 -5.08709 22.8617 -2.19382 9.0501 16.6806 -4.47238 78.0818 -4.2899 -3.94758 93.454 21.9379 0.480641 -8.94531e-015 0 -3.97569e-015 15.8784 16.5881 -3.06117 -2.6702e-005 6.88335e-006 -3 8.02899 -4.95145 0.697709 -61.3026 -1.05736 0.938979 -111.803 18.4622 5.08317 5.96354e-015 0 2.38542e-015 -12.1143 13.4627 2.18651 1.146e-005 -1.81543e-006 3 -8.02889 -4.95139 -0.697675 178.034 -3.69426 2.53189 180 7.01493e-015 178.708 179.533 9.6475 179.394 -2.19464e-006 -7.3452e-006 0.100647 -18.3535 67.3965 19.0505 8.13201 25.2164 -3.50852 -174.285 -3.47373 -2.65612 4.54188e-006 -4.6773e-006 -1.22346 -2.72395 -6.78101 0.0116021 1.97217e-006 -1.62636e-006 -0.0835012 18.564 67.7502 -19.3185 -8.12198 25.2335 3.48155 
53.0525 96.6968 3.95357 -0.400952 -6.19428 1.79527 0.194559 -0.492063 -0.281148 0.384372 3.00215 -0.582149 0.391844 4.64717 -0.589017 -5.06206 22.7303 -2.12884 8.9294 16.5682 -4.37641 78.0769 -4.29005 -3.94733 93.4849 21.966 0.524742 -7.55382e-015 3.18055e-015 -3.18055e-015 15.8355 16.5146 -3.04464 -2.6702e-005 6.88335e-006 -3 8.02899 -4.95145 0.697709 -61.2909 -1.04384 0.929778 -111.803 18.4647 5.10453 -9.74045e-015 -3.18055e-015 -2.78299e-015 -12.1265 13.5143 2.19459 1.146e-005 -1.81543e-006 3 -8.02889 -4.95139 -0.697675 178.043 -3.62638 2.50774 180 7.01493e-015 178.708 179.559 9.71459 179.388 -2.19464e-006 -7.3452e-006 0.100512 -18.3478 67.3893 19.0443 8.13164 25.2113 -3.51537 -174.295 -3.42524 -2.64614 4.54188e-006 -4.6773e-006 -1.2231 -2.71918 -6.82977 0.0118659 1.97217e-006 -1.62636e-006 -0.084474 18.5709 67.7588 -19.3261 -8.12198 25.2335 3.48155 
53.0457 96.6913 3.94806 -0.39584 -6.17466 1.78147 0.194221 -0.490078 -0.281158 0.384628 3.00806 -0.583851 0.392121 4.65308 -0.590739 -5.03689 22.599 -2.06396 8.80899 16.4557 -4.28061 78.0718 -4.29018 -3.94707 93.5158 21.9939 0.56874 2.5842e-015 0 7.95139e-016 15.7927 16.4413 -3.02816 -2.6702e-005 6.88335e-006 -3 8.02899 -4.95145 0.697709 -61.2794 -1.03045 0.920672 -111.804 18.4672 5.12577 6.55989e-015 0 1.19271e-015 -12.1386 13.5658 2.20264 1.146e-005 -1.81543e-006 3 -8.02889 -4.95139 -0.697675 178.052 -3.55854 2.4836 180 7.01493e-015 178.708 179.585 9.78152 179.382 -2.19464e-006 -7.3452e-006 0.100376 -18.3421 67.3821 19.0382 8.13129 25.2064 -3.52191 -174.306 -3.37655 -2.63611 4.54188e-006 -4.6773e-006 -1.22275 -2.71436 -6.87877 0.0121382 1.97217e-006 -1.62636e-006 -0.085453 18.578 67.7675 -19.3337 -8.12198 25.2335 3.48155 
53.037 96.7328 3.93354 -0.390712 -6.15494 1.7676 0.193923 -0.488085 -0.281167 0.384933 3.01395 -0.585542 0.392447 4.65896 -0.592451 -5.01184 22.4677 -1.99914 8.68872 16.3431 -4.18508 78.0663 -4.29028 -3.94677 93.5471 22.0214 0.612456 2.98177e-014 0 9.54166e-015 15.75 16.3684 -3.01179 -2.6702e-005 6.88335e-006 -3 8.02899 -4.95145 0.697709 -61.2683 -1.01739 0.911806 -111.804 18.4699 5.1467 1.13307e-014 3.18055e-015 2.78299e-015 -12.1505 13.6166 2.2106 1.146e-005 -1.81543e-006 3 -8.02889 -4.95139 -0.697675 178.062 -3.49082 2.45949 180 7.01493e-015 178.708 179.611 9.84805 179.376 -2.19464e-006 -7.3452e-006 0.100234 -18.3363 67.3747 19.0318 8.13098 25.2021 -3.52763 -174.316 -3.32737 -2.62597 4.54188e-006 -4.6773e-006 -1.22238 -2.70941 -6.92841 0.012432 1.97217e-006 -1.62636e-006 -0.0864474 18.5853 67.7764 -19.3417 -8.12198 25.2335 3.48155 
53.04 96.7229 3.93865 -0.385564 -6.13506 1.75365 0.193689 -0.486081 -0.281176 0.385316 3.0198 -0.587214 0.39285 4.66482 -0.594145 -4.98717 22.3365 -1.93432 8.56842 16.2305 -4.08988 78.0601 -4.29031 -3.94639 93.5788 22.0483 0.65571 2.50469e-014 -3.18055e-015 7.95139e-015 15.7075 16.2961 -2.99558 -2.6702e-005 6.88335e-006 -3 8.02899 -4.95145 0.697709 -61.2578 -1.00486 0.903321 -111.804 18.4729 5.16715 -7.7526e-015 9.54166e-015 -2.38542e-015 -12.1621 13.6666 2.21844 1.146e-005 -1.81543e-006 3 -8.02889 -4.95139 -0.697675 178.071 -3.4233 2.43542 180 7.01493e-015 178.708 179.637 9.91387 179.37 -2.19464e-006 -7.3452e-006 0.100084 -18.3302 67.367 19.0253 8.13074 25.1988 -3.53207 -174.327 -3.27741 -2.61563 4.54188e-006 -4.6773e-006 -1.22198 -2.70425 -6.97904 0.0127599 1.97217e-006 -1.62636e-006 -0.0874664 18.593 67.7859 -19.35 -8.12198 25.2335 3.48155 
53.0407 96.6844 3.92889 -0.380392 -6.11495 1.73957 0.193543 -0.484062 -0.281184 0.385806 3.02562 -0.588861 0.39336 4.67064 -0.595815 -4.96314 22.2055 -1.86946 8.44795 16.1177 -3.9951 78.053 -4.29026 -3.94592 93.6112 22.0744 0.69832 -4.37326e-015 0 -2.38542e-015 15.6652 16.2249 -2.97958 -2.6702e-005 6.88335e-006 -3 8.02899 -4.95145 0.697709 -61.2482 -0.993061 0.895362 -111.804 18.4764 5.18693 -9.93923e-015 -3.18055e-015 -2.78299e-015 -12.1732 13.7153 2.22609 1.146e-005 -1.81543e-006 3 -8.02889 -4.95139 -0.697675 178.08 -3.35605 2.4114 180 7.01493e-015 178.708 179.663 9.97881 179.365 -2.19464e-006 -7.3452e-006 0.0999235 -18.3239 67.359 19.0184 8.13059 25.1969 -3.53473 -174.337 -3.22638 -2.60504 4.54188e-006 -4.6773e-006 -1.22155 -2.69881 -7.03105 0.0131348 1.97217e-006 -1.62636e-006 -0.0885191 18.6012 67.796 -19.3588 -8.12198 25.2335 3.48155 
53.0452 96.6953 3.91996 -0.375193 -6.09456 1.72534 0.193507 -0.482023 -0.281191 0.386432 3.03138 -0.590475 0.394006 4.6764 -0.597454 -4.94003 22.0747 -1.80451 8.32713 16.0048 -3.90082 78.0446 -4.2901 -3.94534 93.6445 22.0995 0.740106 9.14409e-015 -3.18055e-015 3.18055e-015 15.6231 16.1549 -2.96384 -2.6702e-005 6.88335e-006 -3 8.02899 -4.95145 0.697709 -61.2397 -0.982196 0.888071 -111.803 18.4804 5.20585 -3.57812e-015 0 -1.19271e-015 -12.1838 13.7624 2.23349 1.146e-005 -1.81543e-006 3 -8.02889 -4.95139 -0.697675 178.089 -3.28913 2.38744 180 7.01493e-015 178.708 179.689 10.0426 179.359 -2.19464e-006 -7.3452e-006 0.0997491 -18.3172 67.3505 19.0112 8.13057 25.1966 -3.53513 -174.348 -3.17397 -2.59411 4.54188e-006 -4.6773e-006 -1.22109 -2.693 -7.0848 0.0135696 1.97217e-006 -1.62636e-006 -0.0896148 18.61 67.8069 -19.3683 -8.12198 25.2335 3.48155 
53.0398 96.6807 3.91231 -0.369962 -6.07382 1.71091 0.193607 -0.479961 -0.281198 0.387223 3.03708 -0.592051 0.394817 4.6821 -0.599056 -4.91809 21.9443 -1.73942 8.20582 15.8919 -3.80711 78.0347 -4.28981 -3.9446 93.6789 22.1233 0.780885 -6.16232e-015 9.54166e-015 -3.18055e-015 15.5814 16.0863 -2.94842 -2.6702e-005 6.88335e-006 -3 8.02899 -4.95145 0.697709 -61.2326 -0.972462 0.881592 -111.802 18.4851 5.22374 -1.19271e-015 0 -7.95139e-016 -12.1936 13.8076 2.24061 1.146e-005 -1.81543e-006 3 -8.02889 -4.95139 -0.697675 178.098 -3.22264 2.36356 180 7.01493e-015 178.708 179.715 10.105 179.353 -2.19464e-006 -7.3452e-006 0.0995579 -18.3101 67.3414 19.0034 8.1307 25.1983 -3.5328 -174.359 -3.11991 -2.58278 4.54188e-006 -4.6773e-006 -1.22057 -2.68674 -7.14068 0.014077 1.97217e-006 -1.62636e-006 -0.0907627 18.6196 67.8188 -19.3786 -8.12198 25.2335 3.48155 
